{"title":"My So Take 2D 2010 R5 Cam Audio.XviD.Feel-Free","uid":6006874,"size":1470239955,"categoryP":"video","categoryS":"movies","magnet":"?xt=urn:btih:6da7eb49ee886860a229ddba2ae1f1c3b7b8c5df&amp;dn=My+So+Take+2D+2010+R5+Cam+Audio.XviD.Feel-Free&amp;tr=udp%3A%2F%2Ftracker.openbittorrent.com%3A80&amp;tr=udp%3A%2F%2Fopen.demonii.com%3A1337&amp;tr=udp%3A%2F%2Ftracker.coppersurfer.tk%3A6969&amp;tr=udp%3A%2F%2Fexodus.desync.com%3A6969","seeders":0,"leechers":1,"uploader":"hiest","files":-1,"time":1291346002,"description":"Genre: Horror | Thriller \nLanguage:English\nIMDb:http://www.imdb.com/title/tt0872230/\nSource:ELEKTRI4KA/Audio:Ink/Thx\n\n\nGeneral\nComplete name\nFormat : AVI\nFormat/Info : Audio Video Interleave\nFile size : 1.37 GiB\nDuration : 1h 42mn\nOverall bit rate : 1 906 Kbps\nVideo #0\nCodec ID : XVID\nCodec ID/Hint : XviD\nDuration : 1h 42mn\nBit rate : 1 448 Kbps\nWidth : 720 pixels\nHeight : 304 pixels\nDisplay aspect ratio : 2.35:1\nFrame rate : 25.000 fps\nResolution : 24 bits\nColorimetry : 4:2:0\nScan type : Progressive\nBits/(Pixel*Frame) : 0.265\nStream size : 1.04 GiB (76%)\nWriting library : XviD 1.2.1 (UTC 2008-12-04)\nAudio #1\nID : 1\nFormat : AC-3\nFormat/Info : Audio Coding 3\nCodec ID : 2000\nDuration : 1h 42mn\nBit rate mode : Constant\nBit rate : 448 Kbps\nChannel(s) : 6 channels\nChannel positions : Front: L C R, Surround: L R, LFE\nSampling rate : 48.0 KHz\nStream size : 329 MiB (24%)\nAlignment : Split accross interleaves\nInterleave, duration : 40 ms (1.00 video frame)\nInterleave, preload duration : 500 ms\n\n\nPlot:\nA serial killer returns to his hometown to stalk seven children who share the same birthday as the date he was allegedly put to rest\n\n\n\n\n================================== &lt;a href=&quot;\nhttp://thepiratebay.se/user/hiest&quot; rel=&quot;nofollow&quot; target=&quot;_NEW&quot;&gt;\nhttp://thepiratebay.se/user/hiest&lt;/a&gt;\n==================================","torrent":{"xt":"urn:btih:6da7eb49ee886860a229ddba2ae1f1c3b7b8c5df","amp;dn":"My+So+Take+2D+2010+R5+Cam+Audio.XviD.Feel-Free","amp;tr":["udp%3A%2F%2Ftracker.openbittorrent.com%3A80","udp%3A%2F%2Fopen.demonii.com%3A1337","udp%3A%2F%2Ftracker.coppersurfer.tk%3A6969","udp%3A%2F%2Fexodus.desync.com%3A6969"],"infoHash":"6da7eb49ee886860a229ddba2ae1f1c3b7b8c5df","infoHashBuffer":{"type":"Buffer","data":[109,167,235,73,238,136,104,96,162,41,221,186,42,225,241,195,183,184,197,223]},"announce":[],"urlList":[]}}